# Blender v2.79 (sub 0) OBJ File: ''
# www.blender.org
mtllib arc.mtl
o Plane.001
v 1.000004 -0.000000 3.971283
v -0.999996 -0.000000 3.971283
v -0.999996 2.000000 3.971283
v -2.414207 -0.000000 2.557072
v -2.414207 2.000000 2.557072
v 2.414219 -0.000000 2.557072
v 2.414219 2.000000 2.557072
v 1.000004 2.000000 3.971283
v 3.828430 -0.000000 -0.857143
v 3.828434 -0.000000 1.142857
v 3.828434 2.000000 1.142857
v 2.414219 -0.000000 -2.271355
v 2.414219 2.000000 -2.271355
v 3.828430 2.000000 -0.857143
v -3.828423 -0.000000 1.142857
v -3.828423 -0.000000 -0.857143
v -3.828423 2.000000 -0.857143
v -2.414207 -0.000000 -2.271355
v -2.414207 2.000000 -2.271355
v -3.828423 2.000000 1.142857
v -2.414207 -0.000000 -2.271355
v -2.414207 2.000000 -2.271355
v -0.414207 -0.000000 -2.271355
v -0.414207 2.000000 -2.271355
v 0.414219 -0.000000 -2.271358
v 0.414219 2.000000 -2.271358
v 2.414219 -0.000000 -2.271355
v 2.414219 2.000000 -2.271355
v 1.105095 -0.000000 4.388626
v -1.105087 -0.000000 4.388626
v -1.105087 1.999999 4.388626
v -2.667919 -0.000000 2.825794
v -2.667919 1.999999 2.825794
v 2.667931 -0.000000 2.825794
v 2.667931 1.999999 2.825794
v 1.105095 1.999999 4.388626
v 4.230759 -0.000000 -0.947220
v 4.230766 -0.000000 1.262959
v 4.230766 1.999999 1.262959
v 2.667931 -0.000000 -2.510052
v 2.667931 1.999999 -2.510052
v 4.230759 1.999999 -0.947220
v -4.230755 -0.000000 1.262959
v -4.230755 -0.000000 -0.947220
v -4.230755 1.999999 -0.947220
v -2.667919 -0.000000 -2.510052
v -2.667919 1.999999 -2.510052
v -4.230755 1.999999 1.262959
v -2.667919 -0.000000 -2.510052
v -2.667919 1.999999 -2.510052
v -0.457737 -0.000000 -2.510052
v -0.457737 1.999999 -2.510052
v 0.457748 -0.000000 -2.510056
v 0.457748 1.999999 -2.510056
v 2.667931 -0.000000 -2.510052
v 2.667931 1.999999 -2.510052
vt 0.999900 0.000100
vt 0.000100 0.999900
vt 0.000100 0.000100
vt 0.999900 0.000100
vt 0.000100 0.999900
vt 0.000100 0.000100
vt 0.999900 0.000100
vt 0.000100 0.999900
vt 0.000100 0.000100
vt 0.999900 0.000100
vt 0.000100 0.999900
vt 0.000100 0.000100
vt 0.999900 0.000100
vt 0.000100 0.999900
vt 0.000100 0.000100
vt 0.999900 0.000100
vt 0.000100 0.999900
vt 0.000100 0.000100
vt 0.999900 0.000100
vt 0.000100 0.999900
vt 0.000100 0.000100
vt 0.999900 0.000100
vt 0.000100 0.999900
vt 0.000100 0.000100
vt 0.999900 0.000100
vt 0.000100 0.999900
vt 0.000100 0.000100
vt 0.999900 0.000100
vt 0.000100 0.999900
vt 0.000100 0.000100
vt 0.999900 0.000100
vt 0.000100 0.999900
vt 0.000100 0.000100
vt 0.000100 0.999900
vt 0.999900 0.000100
vt 0.000100 0.000100
vt 0.000100 0.999900
vt 0.999900 0.000100
vt 0.000100 0.000100
vt 0.000100 0.999900
vt 0.999900 0.000100
vt 0.000100 0.000100
vt 0.000100 0.999900
vt 0.999900 0.000100
vt 0.000100 0.000100
vt 0.000100 0.999900
vt 0.999900 0.000100
vt 0.000100 0.000100
vt 0.000100 0.999900
vt 0.999900 0.000100
vt 0.000100 0.000100
vt 0.000100 0.999900
vt 0.999900 0.000100
vt 0.000100 0.000100
vt 0.000100 0.999900
vt 0.999900 0.000100
vt 0.000100 0.000100
vt 0.000100 0.999900
vt 0.999900 0.000100
vt 0.000100 0.000100
vt 0.000100 0.999900
vt 0.999900 0.000100
vt 0.000100 0.000100
vt 0.000100 0.999900
vt 0.999900 0.000100
vt 0.000100 0.000100
vt 1.000000 0.000000
vt 0.000000 1.000000
vt 0.000000 0.000000
vt 1.000000 0.000000
vt 0.000000 1.000000
vt 0.000000 0.000000
vt 1.000000 0.000000
vt 0.000000 1.000000
vt 0.000000 0.000000
vt 0.000000 0.000000
vt 1.000000 1.000000
vt 0.000000 1.000000
vt 1.000000 0.000000
vt 0.000000 1.000000
vt 0.000000 0.000000
vt 1.000000 0.000000
vt 0.000000 1.000000
vt 0.000000 0.000000
vt 0.000000 0.000000
vt 1.000000 1.000000
vt 0.000000 1.000000
vt 1.000000 0.000000
vt 0.000000 1.000000
vt 0.000000 0.000000
vt 0.000000 0.000000
vt 1.000000 1.000000
vt 0.000000 1.000000
vt 0.000000 0.000000
vt 1.000000 1.000000
vt 0.000000 1.000000
vt 0.000000 0.000000
vt 1.000000 1.000000
vt 0.000000 1.000000
vt 1.000000 0.000000
vt 0.000000 1.000000
vt 0.000000 0.000000
vt 1.000000 0.000000
vt 0.000000 1.000000
vt 0.000000 0.000000
vt 1.000000 0.000000
vt 0.000000 1.000000
vt 1.000000 0.000000
vt 0.000000 1.000000
vt 0.000000 0.000000
vt 0.000000 1.000000
vt 0.000000 0.000000
vt 1.000000 0.000000
vt 0.000000 0.000000
vt 0.000000 1.000000
vt 0.000000 0.000000
vt 1.000000 0.000000
vt 0.000000 1.000000
vt 0.000000 0.000000
vt 0.000000 0.000000
vt 1.000000 1.000000
vt 0.000000 1.000000
vt 1.000000 0.000000
vt 0.000000 1.000000
vt 0.000000 0.000000
vt 0.000000 0.000000
vt 1.000000 1.000000
vt 0.000000 1.000000
vt 0.000000 0.000000
vt 1.000000 1.000000
vt 1.000000 0.000000
vt 0.000000 0.000000
vt 0.999900 0.999900
vt 0.999900 0.999900
vt 0.999900 0.999900
vt 0.999900 0.999900
vt 0.999900 0.999900
vt 0.999900 0.999900
vt 0.999900 0.999900
vt 0.999900 0.999900
vt 0.999900 0.999900
vt 0.999900 0.999900
vt 0.999900 0.999900
vt 0.999900 0.999900
vt 0.999900 0.999900
vt 0.999900 0.999900
vt 0.999900 0.999900
vt 0.999900 0.999900
vt 0.999900 0.999900
vt 0.999900 0.999900
vt 0.999900 0.999900
vt 0.999900 0.999900
vt 0.999900 0.999900
vt 0.999900 0.999900
vt 1.000000 1.000000
vt 1.000000 1.000000
vt 1.000000 1.000000
vt 1.000000 0.000000
vt 1.000000 1.000000
vt 1.000000 1.000000
vt 1.000000 0.000000
vt 1.000000 1.000000
vt 1.000000 0.000000
vt 1.000000 0.000000
vt 1.000000 0.000000
vt 1.000000 1.000000
vt 1.000000 1.000000
vt 1.000000 1.000000
vt 1.000000 1.000000
vt 1.000000 1.000000
vt 1.000000 1.000000
vt 1.000000 1.000000
vt 1.000000 0.000000
vt 1.000000 1.000000
vt 1.000000 0.000000
vt 1.000000 1.000000
vn 0.0000 0.0000 -1.0000
vn 0.7071 0.0000 -0.7071
vn -0.7071 0.0000 -0.7071
vn -1.0000 0.0000 0.0000
vn -0.7071 0.0000 0.7071
vn 1.0000 0.0000 0.0000
vn 0.7071 0.0000 0.7071
vn 0.0000 0.0000 1.0000
vn 0.0000 -1.0000 -0.0000
vn -0.9838 0.0000 -0.1794
vn 0.9838 0.0000 -0.1794
vn 0.0000 1.0000 -0.0000
usemtl None
s off
f 2/1/1 8/2/1 1/3/1
f 4/4/2 3/5/2 2/6/2
f 1/7/3 7/8/3 6/9/3
f 10/10/4 14/11/4 9/12/4
f 6/13/3 11/14/3 10/15/3
f 9/16/5 13/17/5 12/18/5
f 16/19/6 20/20/6 15/21/6
f 18/22/7 17/23/7 16/24/7
f 15/25/2 5/26/2 4/27/2
f 23/28/8 22/29/8 21/30/8
f 27/31/8 26/32/8 25/33/8
f 36/34/8 30/35/8 29/36/8
f 31/37/5 32/38/5 30/39/5
f 35/40/7 29/41/7 34/42/7
f 42/43/6 38/44/6 37/45/6
f 39/46/7 34/47/7 38/48/7
f 41/49/2 37/50/2 40/51/2
f 48/52/4 44/53/4 43/54/4
f 45/55/3 46/56/3 44/57/3
f 33/58/5 43/59/5 32/60/5
f 50/61/1 51/62/1 49/63/1
f 54/64/1 55/65/1 53/66/1
f 21/67/9 51/68/9 23/69/9
f 49/70/9 16/71/9 44/72/9
f 15/73/9 44/74/9 16/75/9
f 15/76/9 32/77/9 43/78/9
f 2/79/9 32/80/9 4/81/9
f 1/82/9 30/83/9 2/84/9
f 1/85/9 34/86/9 29/87/9
f 10/88/9 34/89/9 6/90/9
f 10/91/9 37/92/9 38/93/9
f 55/94/9 9/95/9 27/96/9
f 27/97/9 53/98/9 55/99/9
f 54/100/10 25/101/10 26/102/10
f 23/103/11 52/104/11 24/105/11
f 28/106/12 54/107/12 26/102/12
f 11/108/12 42/109/12 14/110/12
f 11/108/12 35/111/12 39/112/12
f 8/113/12 35/111/12 7/114/12
f 8/113/12 31/115/12 36/116/12
f 3/117/12 33/118/12 31/119/12
f 33/120/12 20/121/12 48/122/12
f 20/123/12 45/124/12 48/125/12
f 22/126/12 52/127/12 50/128/12
f 56/129/12 14/130/12 42/109/12
f 17/131/12 50/128/12 45/132/12
f 2/1/1 3/133/1 8/2/1
f 4/4/2 5/134/2 3/5/2
f 1/7/3 8/135/3 7/8/3
f 10/10/4 11/136/4 14/11/4
f 6/13/3 7/137/3 11/14/3
f 9/16/5 14/138/5 13/17/5
f 16/19/6 17/139/6 20/20/6
f 18/22/7 19/140/7 17/23/7
f 15/25/2 20/141/2 5/26/2
f 23/28/8 24/142/8 22/29/8
f 27/31/8 28/143/8 26/32/8
f 36/34/8 31/144/8 30/35/8
f 31/37/5 33/145/5 32/38/5
f 35/40/7 36/146/7 29/41/7
f 42/43/6 39/147/6 38/44/6
f 39/46/7 35/148/7 34/47/7
f 41/49/2 42/149/2 37/50/2
f 48/52/4 45/150/4 44/53/4
f 45/55/3 47/151/3 46/56/3
f 33/58/5 48/152/5 43/59/5
f 50/61/1 52/153/1 51/62/1
f 54/64/1 56/154/1 55/65/1
f 21/67/9 49/155/9 51/68/9
f 49/70/9 21/156/9 16/71/9
f 15/73/9 43/157/9 44/74/9
f 15/76/9 4/158/9 32/77/9
f 2/79/9 30/159/9 32/80/9
f 1/82/9 29/160/9 30/83/9
f 1/85/9 6/161/9 34/86/9
f 10/88/9 38/162/9 34/89/9
f 10/91/9 9/163/9 37/92/9
f 55/94/9 37/164/9 9/95/9
f 27/97/9 25/165/9 53/98/9
f 54/100/10 53/98/10 25/101/10
f 23/103/11 51/166/11 52/104/11
f 28/106/12 56/167/12 54/107/12
f 11/108/12 39/168/12 42/109/12
f 11/108/12 7/169/12 35/111/12
f 8/113/12 36/170/12 35/111/12
f 8/113/12 3/171/12 31/115/12
f 3/117/12 5/172/12 33/118/12
f 33/120/12 5/173/12 20/121/12
f 20/123/12 17/174/12 45/124/12
f 22/126/12 24/175/12 52/127/12
f 56/129/12 28/106/12 14/130/12
f 17/131/12 22/176/12 50/128/12
