# Blender v2.79 (sub 0) OBJ File: 'cauldron.blend'
# www.blender.org
mtllib broth.mtl
o broth
v -0.000000 0.890538 -0.534759
v 0.104326 0.890538 -0.524484
v 0.204643 0.890538 -0.494053
v 0.297096 0.890538 -0.444636
v 0.378132 0.890538 -0.378132
v 0.444636 0.890538 -0.297096
v 0.494053 0.890538 -0.204643
v 0.524484 0.890538 -0.104326
v 0.534759 0.890538 0.000000
v 0.524484 0.890538 0.104327
v 0.494053 0.890538 0.204644
v 0.444636 0.890538 0.297097
v 0.378132 0.890538 0.378132
v 0.297096 0.890538 0.444636
v 0.204643 0.890538 0.494053
v 0.104326 0.890538 0.524484
v -0.000000 0.890538 0.534759
v -0.104327 0.890538 0.524484
v -0.204644 0.890538 0.494053
v -0.297097 0.890538 0.444636
v -0.378132 0.890538 0.378132
v -0.444636 0.890538 0.297096
v -0.494053 0.890538 0.204644
v -0.524484 0.890538 0.104327
v -0.534759 0.890538 0.000000
v -0.524484 0.890538 -0.104326
v -0.494053 0.890538 -0.204643
v -0.444636 0.890538 -0.297096
v -0.378132 0.890538 -0.378132
v -0.297097 0.890538 -0.444636
v -0.204644 0.890538 -0.494053
v -0.104327 0.890538 -0.524484
v 0.462357 0.890538 0.186617
v 0.461018 0.890538 0.069502
v 0.440671 0.890538 -0.049750
v 0.402097 0.890538 -0.166554
v 0.346779 0.890538 -0.276423
v 0.276844 0.890538 -0.375134
v 0.194977 0.890538 -0.458894
v 0.377753 0.890538 0.263687
v 0.361352 0.890538 0.139733
v 0.329560 0.890538 0.011031
v 0.283599 0.890538 -0.117471
v 0.225234 0.890538 -0.240835
v 0.156709 0.890538 -0.354321
v 0.080656 0.890538 -0.453567
v 0.275388 0.890538 0.331967
v 0.242146 0.890538 0.206935
v 0.198647 0.890538 0.074345
v 0.146563 0.890538 -0.060708
v 0.087895 0.890538 -0.193034
v 0.024897 0.890538 -0.317548
v -0.040007 0.890538 -0.429465
v 0.160787 0.890538 0.388175
v 0.110752 0.890538 0.267380
v 0.056461 0.890538 0.136309
v -0.000000 0.890538 0.000000
v -0.056461 0.890538 -0.136309
v -0.110753 0.890538 -0.267379
v -0.160788 0.890538 -0.388175
v 0.040007 0.890538 0.429466
v -0.024898 0.890538 0.317549
v -0.087895 0.890538 0.193035
v -0.146563 0.890538 0.060709
v -0.198647 0.890538 -0.074345
v -0.242147 0.890538 -0.206935
v -0.275389 0.890538 -0.331967
v -0.080657 0.890538 0.453567
v -0.156709 0.890538 0.354321
v -0.225234 0.890538 0.240835
v -0.283599 0.890538 0.117471
v -0.329561 0.890538 -0.011031
v -0.361353 0.890538 -0.139732
v -0.377753 0.890538 -0.263687
v -0.194978 0.890538 0.458894
v -0.276844 0.890538 0.375134
v -0.346780 0.890538 0.276423
v -0.402098 0.890538 0.166554
v -0.440671 0.890538 0.049750
v -0.461018 0.890538 -0.069502
v -0.462357 0.890538 -0.186617
vt 0.789448 0.153762
vt 0.807058 0.125849
vt 0.874151 0.192942
vt 0.689030 0.128340
vt 0.728164 0.073134
vt 0.578186 0.117511
vt 0.640503 0.036824
vt 0.462725 0.121541
vt 0.547442 0.018313
vt 0.359497 0.036824
vt 0.452558 0.018313
vt 0.348696 0.140114
vt 0.271836 0.073134
vt 0.242095 0.172359
vt 0.192942 0.125849
vt 0.148566 0.216883
vt 0.125849 0.192942
vt 0.838349 0.247820
vt 0.926866 0.271836
vt 0.728826 0.234283
vt 0.604998 0.231500
vt 0.474324 0.239313
vt 0.344638 0.257143
vt 0.223732 0.284030
vt 0.118955 0.318674
vt 0.073134 0.271835
vt 0.872987 0.351692
vt 0.963176 0.359497
vt 0.758361 0.350582
vt 0.626847 0.355899
vt 0.486911 0.367103
vt 0.347477 0.383414
vt 0.217453 0.403856
vt 0.105246 0.427308
vt 0.036824 0.359497
vt 0.892033 0.461388
vt 0.981687 0.452558
vt 0.776501 0.472768
vt 0.642894 0.485926
vt 0.500000 0.500000
vt 0.357105 0.514074
vt 0.223499 0.527233
vt 0.107967 0.538612
vt 0.018313 0.452558
vt 0.981687 0.547442
vt 0.894754 0.572692
vt 0.782547 0.596144
vt 0.652523 0.616586
vt 0.373153 0.644101
vt 0.513089 0.632897
vt 0.241639 0.649418
vt 0.127013 0.648308
vt 0.036824 0.640503
vt 0.963176 0.640503
vt 0.881045 0.681327
vt 0.776268 0.715970
vt 0.655362 0.742857
vt 0.395002 0.768500
vt 0.525675 0.760687
vt 0.271174 0.765718
vt 0.161651 0.752181
vt 0.073134 0.728164
vt 0.926866 0.728165
vt 0.851434 0.783117
vt 0.757905 0.827642
vt 0.651303 0.859886
vt 0.421814 0.882489
vt 0.537275 0.878459
vt 0.310970 0.871660
vt 0.210552 0.846238
vt 0.125849 0.807058
vt 0.874151 0.807058
vt 0.807058 0.874151
vt 0.728164 0.926866
vt 0.640503 0.963176
vt 0.452558 0.981687
vt 0.547442 0.981687
vt 0.359497 0.963176
vt 0.271835 0.926866
vt 0.192942 0.874151
vt 0.018313 0.547442
vn 0.0000 1.0000 -0.0000
usemtl broth
s off
f 33/1/1 11/2/1 10/3/1
f 40/4/1 12/5/1 33/1/1
f 47/6/1 13/7/1 40/4/1
f 54/8/1 14/9/1 47/6/1
f 54/8/1 16/10/1 15/11/1
f 61/12/1 17/13/1 16/10/1
f 68/14/1 18/15/1 17/13/1
f 75/16/1 19/17/1 18/15/1
f 34/18/1 10/3/1 9/19/1
f 41/20/1 33/1/1 34/18/1
f 48/21/1 40/4/1 41/20/1
f 55/22/1 47/6/1 48/21/1
f 55/22/1 61/12/1 54/8/1
f 62/23/1 68/14/1 61/12/1
f 69/24/1 75/16/1 68/14/1
f 76/25/1 20/26/1 75/16/1
f 35/27/1 9/19/1 8/28/1
f 42/29/1 34/18/1 35/27/1
f 49/30/1 41/20/1 42/29/1
f 56/31/1 48/21/1 49/30/1
f 56/31/1 62/23/1 55/22/1
f 63/32/1 69/24/1 62/23/1
f 70/33/1 76/25/1 69/24/1
f 77/34/1 21/35/1 76/25/1
f 36/36/1 8/28/1 7/37/1
f 43/38/1 35/27/1 36/36/1
f 50/39/1 42/29/1 43/38/1
f 57/40/1 49/30/1 50/39/1
f 57/40/1 63/32/1 56/31/1
f 64/41/1 70/33/1 63/32/1
f 71/42/1 77/34/1 70/33/1
f 78/43/1 22/44/1 77/34/1
f 6/45/1 36/36/1 7/37/1
f 37/46/1 43/38/1 36/36/1
f 44/47/1 50/39/1 43/38/1
f 51/48/1 57/40/1 50/39/1
f 65/49/1 57/40/1 58/50/1
f 72/51/1 64/41/1 65/49/1
f 79/52/1 71/42/1 72/51/1
f 24/53/1 78/43/1 79/52/1
f 5/54/1 37/46/1 6/45/1
f 38/55/1 44/47/1 37/46/1
f 45/56/1 51/48/1 44/47/1
f 52/57/1 58/50/1 51/48/1
f 66/58/1 58/50/1 59/59/1
f 73/60/1 65/49/1 66/58/1
f 80/61/1 72/51/1 73/60/1
f 25/62/1 79/52/1 80/61/1
f 4/63/1 38/55/1 5/54/1
f 39/64/1 45/56/1 38/55/1
f 46/65/1 52/57/1 45/56/1
f 53/66/1 59/59/1 52/57/1
f 67/67/1 59/59/1 60/68/1
f 74/69/1 66/58/1 67/67/1
f 81/70/1 73/60/1 74/69/1
f 26/71/1 80/61/1 81/70/1
f 3/72/1 39/64/1 4/63/1
f 2/73/1 46/65/1 39/64/1
f 1/74/1 53/66/1 46/65/1
f 32/75/1 60/68/1 53/66/1
f 30/76/1 60/68/1 31/77/1
f 29/78/1 67/67/1 30/76/1
f 28/79/1 74/69/1 29/78/1
f 27/80/1 81/70/1 28/79/1
f 33/1/1 12/5/1 11/2/1
f 40/4/1 13/7/1 12/5/1
f 47/6/1 14/9/1 13/7/1
f 54/8/1 15/11/1 14/9/1
f 54/8/1 61/12/1 16/10/1
f 61/12/1 68/14/1 17/13/1
f 68/14/1 75/16/1 18/15/1
f 75/16/1 20/26/1 19/17/1
f 34/18/1 33/1/1 10/3/1
f 41/20/1 40/4/1 33/1/1
f 48/21/1 47/6/1 40/4/1
f 55/22/1 54/8/1 47/6/1
f 55/22/1 62/23/1 61/12/1
f 62/23/1 69/24/1 68/14/1
f 69/24/1 76/25/1 75/16/1
f 76/25/1 21/35/1 20/26/1
f 35/27/1 34/18/1 9/19/1
f 42/29/1 41/20/1 34/18/1
f 49/30/1 48/21/1 41/20/1
f 56/31/1 55/22/1 48/21/1
f 56/31/1 63/32/1 62/23/1
f 63/32/1 70/33/1 69/24/1
f 70/33/1 77/34/1 76/25/1
f 77/34/1 22/44/1 21/35/1
f 36/36/1 35/27/1 8/28/1
f 43/38/1 42/29/1 35/27/1
f 50/39/1 49/30/1 42/29/1
f 57/40/1 56/31/1 49/30/1
f 57/40/1 64/41/1 63/32/1
f 64/41/1 71/42/1 70/33/1
f 71/42/1 78/43/1 77/34/1
f 78/43/1 23/81/1 22/44/1
f 6/45/1 37/46/1 36/36/1
f 37/46/1 44/47/1 43/38/1
f 44/47/1 51/48/1 50/39/1
f 51/48/1 58/50/1 57/40/1
f 65/49/1 64/41/1 57/40/1
f 72/51/1 71/42/1 64/41/1
f 79/52/1 78/43/1 71/42/1
f 24/53/1 23/81/1 78/43/1
f 5/54/1 38/55/1 37/46/1
f 38/55/1 45/56/1 44/47/1
f 45/56/1 52/57/1 51/48/1
f 52/57/1 59/59/1 58/50/1
f 66/58/1 65/49/1 58/50/1
f 73/60/1 72/51/1 65/49/1
f 80/61/1 79/52/1 72/51/1
f 25/62/1 24/53/1 79/52/1
f 4/63/1 39/64/1 38/55/1
f 39/64/1 46/65/1 45/56/1
f 46/65/1 53/66/1 52/57/1
f 53/66/1 60/68/1 59/59/1
f 67/67/1 66/58/1 59/59/1
f 74/69/1 73/60/1 66/58/1
f 81/70/1 80/61/1 73/60/1
f 26/71/1 25/62/1 80/61/1
f 3/72/1 2/73/1 39/64/1
f 2/73/1 1/74/1 46/65/1
f 1/74/1 32/75/1 53/66/1
f 32/75/1 31/77/1 60/68/1
f 30/76/1 67/67/1 60/68/1
f 29/78/1 74/69/1 67/67/1
f 28/79/1 81/70/1 74/69/1
f 27/80/1 26/71/1 81/70/1
